<svg width="3710" height="3710" viewBox="0 0 3710 3710" fill="none" xmlns="http://www.w3.org/2000/svg">
<path d="M1622.78 3112.9C925.619 3007.32 359.059 2348.17 461.991 1615.54C549.803 990.727 1097.6 504.485 1754.51 458.569C1802.08 455.235 1850.19 454.204 1898.76 455.613C2265.22 466.198 2590.83 612.779 2831.65 834.592C3071.33 1055.34 3227.05 1350.6 3255.41 1660.36C3330.91 2484.51 2489.89 3244.22 1622.78 3112.9Z" fill="#F4F7FA"/>
<path d="M997.049 2987.21C1037.84 2987.62 1090.68 2981.01 1143.33 2952.95C1200.3 2922.58 1276.87 2856.55 1262.65 2809.35C1257.35 2791.73 1238.98 2775.4 1221.57 2775.24C1195.85 2775 1189.7 2810.21 1141.9 2844.83C1133.06 2851.22 1087.39 2884.3 1067.43 2869.99C1057.51 2862.87 1055.95 2845.48 1058.82 2832.62C1067.22 2795.03 1114.2 2793.34 1162.54 2756.16C1211.56 2718.45 1255.82 2648.99 1238.66 2597.81C1228.8 2568.4 1198.01 2543.12 1175.89 2547.47C1166.44 2549.33 1159.92 2556.33 1126.54 2614.25C1099.14 2661.79 1092.74 2675.79 1077.52 2679.17C1061.85 2682.64 1038.71 2674.45 1031.05 2658.63C1011.11 2617.45 1117.61 2568.81 1136.61 2460.24C1145.12 2411.58 1138.37 2337.73 1095.37 2318.18C1066.3 2304.97 1022.1 2317.22 1004.18 2343.37C988.022 2366.94 1003.28 2387.13 987.653 2441.94C982.912 2458.57 973.156 2492.79 958.984 2493.36C942.346 2494.04 927.921 2447.99 924.637 2436.8C899.91 2352.53 940.371 2313.96 913.721 2271.74C892.939 2238.82 842.824 2221.86 800.852 2233.79C764.124 2244.23 732.545 2277.1 727.361 2313.63C722.086 2350.8 750.165 2390.79 806.322 2470.76C832.953 2508.69 854.521 2534.63 850.034 2569.56C847.847 2586.58 838.921 2610.01 826.488 2611.1C799.048 2613.53 795.494 2503.59 732.992 2481.06C701 2469.53 658.775 2482.78 638.24 2510.71C613.08 2544.93 623.172 2597.53 648.295 2626.97C681.073 2665.37 720.314 2641.93 784.533 2685.78C813.022 2705.23 856.96 2745.11 847.417 2773.99C843.263 2786.56 828.677 2797.93 813.755 2798.29C780.308 2799.08 774.232 2743.84 723.137 2715.22C686.325 2694.6 633.127 2691.71 618.593 2712.21C598.075 2741.15 655.028 2816.12 685.866 2849.76C723.144 2890.43 812.594 2969.22 997.049 2987.21Z" fill="url(#paint0_linear_0_1)"/>
<g opacity="0.5">
<path d="M982.435 2968.49C995.965 2877.88 952.321 2687.13 916.33 2595.61C881.261 2506.44 852.47 2367.65 852.183 2366.26L845.451 2367.64C845.738 2369.04 874.645 2508.4 909.933 2598.13C945.649 2688.95 989 2877.98 975.636 2967.47L982.435 2968.49Z" fill="white"/>
</g>
<path d="M1091.47 3007.6C1125.76 2967.98 1177.35 2895.58 1194.53 2794.07C1201.61 2752.25 1215.43 2670.55 1171.46 2595.08C1149.54 2557.46 1101.03 2500.38 1063.73 2512.25C1039.73 2519.89 1022.07 2555.54 1026.08 2584.21C1030.13 2613.12 1053.82 2617.89 1075.59 2668.28C1083.64 2686.92 1092.79 2708.78 1083.27 2719.82C1075.31 2729.03 1055.73 2729.09 1041.7 2721.88C1012.71 2706.98 1025.47 2670.38 995.353 2640.6C973.941 2619.43 936.199 2607 918.164 2621.16C902.505 2633.45 902.179 2665.4 913.046 2687.7C930.448 2723.4 967.982 2716.75 988.555 2755.91C997.682 2773.29 1002.99 2798.78 992.84 2807.76C981.269 2817.99 951.03 2805.54 932.202 2791.4C907.343 2772.72 907.926 2755.28 890.787 2751.55C871.67 2747.39 845.849 2763.64 840.245 2783.67C832.396 2811.72 864.642 2845.63 891.162 2861.48C925.113 2881.77 952.378 2874.09 967.614 2899.02C973.206 2908.17 977.778 2922.7 971.801 2930.73C963.274 2942.19 936.737 2935.78 919.118 2931.52C876.237 2921.16 865.683 2904.33 849.424 2910.59C832.963 2916.93 822.485 2942.39 827.658 2961.37C830.533 2971.92 840.5 2988.75 896.022 3003.71C934.885 3014.17 1000.78 3024.99 1091.47 3007.6Z" fill="url(#paint1_linear_0_1)"/>
<path d="M2863.57 3025.9L1438.02 2927.46C1436.3 2927.29 1434.58 2927.29 1432.86 2927.44L583.89 2965.9C563.582 2967.75 564.505 3020.92 587.556 3023.82L1921.5 3202.44C1926.97 3203.11 1932.49 3203.1 1937.94 3202.39L2860.94 3072.7C2873.26 3070.55 2877.76 3026.94 2863.57 3025.9Z" fill="url(#paint2_linear_0_1)"/>
<path d="M2860.75 3024.33L1438.02 2890.07C1436.3 2889.91 1434.58 2889.91 1432.86 2890.06L588.01 2964.23C572.497 2965.59 572.101 2988.13 587.555 2990.03L1921.5 3154.65C1926.96 3155.32 1932.49 3155.31 1937.94 3154.6L2860.94 3035.32C2867.48 3034.47 2867.31 3024.95 2860.75 3024.33Z" fill="url(#paint3_linear_0_1)"/>
<path d="M1907.4 3138.57C1909.37 3138.57 1911.36 3138.44 1913.32 3138.19L2740.59 3031.28C2743.6 3030.89 2743.53 3026.5 2740.5 3026.21L1470.14 2906.58C1469.85 2906.55 1469.57 2906.54 1469.29 2906.54C1469.02 2906.54 1468.77 2906.55 1468.5 2906.57L660.935 2977.47C657.187 2977.8 657.091 2983.25 660.825 2983.71L1901.74 3138.23C1903.61 3138.46 1905.51 3138.57 1907.4 3138.57Z" fill="url(#paint4_linear_0_1)"/>
<path d="M2378.03 3087.14C2378.33 3089.61 2386.11 3090.69 2395.41 3089.56C2404.71 3088.43 2412.01 3085.51 2411.71 3083.05C2411.41 3080.58 2403.63 3079.5 2394.33 3080.63C2385.03 3081.76 2377.73 3084.67 2378.03 3087.14Z" fill="url(#paint5_linear_0_1)"/>
<path d="M1705.3 3163.31L1833.35 3180.13C1842.7 3181.36 1850.36 3176.78 1850.36 3169.9C1850.36 3163.02 1842.7 3156.55 1833.35 3155.45L1705.3 3140.49C1697.39 3139.57 1691.03 3143.89 1691.03 3150.13C1691.03 3156.37 1697.39 3162.27 1705.3 3163.31Z" fill="url(#paint6_linear_0_1)"/>
<path d="M1565.43 3144.93L1670.88 3158.78C1678.52 3159.79 1684.77 3155.57 1684.77 3149.35C1684.77 3143.14 1678.52 3137.37 1670.88 3136.47L1565.43 3124.15C1558.86 3123.39 1553.58 3127.38 1553.58 3133.07C1553.58 3138.76 1558.86 3144.07 1565.43 3144.93Z" fill="url(#paint7_linear_0_1)"/>
<path d="M1388.69 3121.71L1468.92 3132.25C1474.68 3133.01 1479.38 3129.26 1479.38 3123.87C1479.38 3118.47 1474.68 3113.55 1468.92 3112.88L1388.69 3103.51C1383.65 3102.92 1379.59 3106.49 1379.59 3111.48C1379.59 3116.47 1383.65 3121.05 1388.69 3121.71Z" fill="url(#paint8_linear_0_1)"/>
<path opacity="0.6" d="M1240.22 2972.9C1364.19 2994.98 1446.53 3039.92 1624.43 3043.52C1778.54 3046.63 1779.69 3011.12 1958.8 2999.9C2193.46 2985.21 2254.62 3042.2 2494.63 3037.28C2557.21 3036 2639.13 3030.35 2736.05 3012.56L2860.75 3024.33C2867.32 3024.95 2867.48 3034.47 2860.94 3035.32L1937.95 3154.6C1932.49 3155.31 1926.97 3155.32 1921.51 3154.65L792.425 3015.32C986.162 2950.72 1134.51 2954.08 1240.22 2972.9Z" fill="white"/>
<path d="M1534.07 3037.03C1452.95 3037.03 1370.84 3022.67 1370.84 2995.22C1370.84 2967.77 1452.95 2953.41 1534.07 2953.41C1615.19 2953.41 1697.3 2967.77 1697.3 2995.22C1697.3 3022.67 1615.19 3037.03 1534.07 3037.03ZM1534.07 2963.72C1425.15 2963.72 1381.15 2985.95 1381.15 2995.22C1381.15 3004.49 1425.15 3026.72 1534.07 3026.72C1642.99 3026.72 1686.99 3004.49 1686.99 2995.22C1686.99 2985.95 1642.99 2963.72 1534.07 2963.72Z" fill="white"/>
<path opacity="0.6" d="M1534.07 3011.88C1573.75 3011.88 1605.92 3004.42 1605.92 2995.22C1605.92 2986.02 1573.75 2978.56 1534.07 2978.56C1494.38 2978.56 1462.21 2986.02 1462.21 2995.22C1462.21 3004.42 1494.38 3011.88 1534.07 3011.88Z" fill="white"/>
<path opacity="0.29" d="M2548.49 1524.59L1698.32 2914.64L1690.56 2927.33L1680.25 2944.2L1662.17 2973.76L1649.04 2995.2C1649.04 3009.5 1600.72 3021.12 1539.99 3021.84C1538.03 3021.87 1536.07 3021.87 1534.08 3021.87C1470.57 3021.87 1419.12 3009.95 1419.12 2995.2L1407.09 2973.38L1383 2929.7L1374.78 2914.78L1364.47 2896.09L1313.88 2804.29L1226.72 2646.23L1128.53 2468.1L1118.74 2450.3L1010.24 2253.44L941.262 2128.33L635.969 1574.53C706.63 1520.4 871.529 1403.2 1111.9 1322.57C1147.61 1310.58 1184.97 1299.41 1223.97 1289.37C1232.98 1287.03 1242.09 1284.77 1251.3 1282.57C1258.2 1280.92 1265.15 1279.3 1272.12 1277.76C1277.62 1276.48 1283.19 1275.28 1288.76 1274.08C1288.79 1274.08 1288.79 1274.08 1288.83 1274.08C1371.97 1256.28 1461.67 1243.94 1557.38 1239.88C1568.89 1239.37 1580.51 1238.99 1592.23 1238.75C1775 1234.9 1937.8 1262.26 2076.2 1302.33C2080.88 1303.64 2085.52 1305.01 2090.09 1306.39C2091.43 1306.8 2092.77 1307.18 2094.08 1307.59C2108.82 1312.02 2123.29 1316.63 2137.45 1321.33C2176.18 1334.19 2212.71 1347.9 2246.95 1361.99C2391.36 1421.41 2494.77 1487.68 2548.49 1524.59Z" fill="url(#paint9_linear_0_1)"/>
<path d="M1661.98 2077.98H1450.23C1431.51 2077.98 1416.34 2062.81 1416.34 2044.09V1878.93C1416.34 1860.21 1431.51 1845.04 1450.23 1845.04H1661.98C1680.7 1845.04 1695.87 1860.21 1695.87 1878.93V2044.09C1695.87 2062.81 1680.7 2077.98 1661.98 2077.98Z" fill="#D8DEE8"/>
<path d="M1547.69 1929.58C1840.98 1929.58 2078.74 1747.24 2078.74 1522.33C2078.74 1297.41 1840.98 1115.08 1547.69 1115.08C1254.4 1115.08 1016.65 1297.41 1016.65 1522.33C1016.65 1747.24 1254.4 1929.58 1547.69 1929.58Z" fill="white"/>
<path d="M1918.81 1742.08H1193.39C1165.34 1742.08 1142.6 1719.34 1142.6 1691.29V1409.65C1142.6 1396.97 1152.87 1386.7 1165.55 1386.7H1946.66C1959.33 1386.7 1969.61 1396.97 1969.61 1409.65V1691.29C1969.61 1719.34 1946.87 1742.08 1918.81 1742.08Z" fill="url(#paint10_linear_0_1)"/>
<path d="M1702.38 1828.07H1393.01C1365.66 1828.07 1343.49 1805.9 1343.49 1778.56V1537.25C1343.49 1509.91 1365.66 1487.74 1393.01 1487.74H1702.38C1729.72 1487.74 1751.89 1509.91 1751.89 1537.25V1778.56C1751.89 1805.9 1729.72 1828.07 1702.38 1828.07Z" fill="url(#paint11_linear_0_1)"/>
<path d="M1895.96 1662.23H1210.99C1191.04 1662.23 1174.87 1646.06 1174.87 1626.12V1436.92C1174.87 1424.24 1185.15 1413.97 1197.82 1413.97H1909.13C1921.8 1413.97 1932.08 1424.24 1932.08 1436.92V1626.12C1932.08 1646.06 1915.91 1662.23 1895.96 1662.23Z" fill="url(#paint12_linear_0_1)"/>
<path d="M1471.59 1574.2C1476.42 1567.3 1479.42 1559.53 1479.42 1551.14C1479.42 1524 1450.66 1502 1415.19 1502C1379.71 1502 1350.95 1524 1350.95 1551.14C1350.95 1559.53 1353.95 1567.3 1358.78 1574.2H1471.59Z" fill="#D8DEE8"/>
<path d="M1795.11 1574.2C1799.95 1567.3 1802.95 1559.53 1802.95 1551.14C1802.95 1524 1774.2 1502 1738.71 1502C1703.24 1502 1674.48 1524 1674.48 1551.14C1674.48 1559.53 1677.48 1567.3 1682.31 1574.2H1795.11Z" fill="#D8DEE8"/>
<path d="M1040.46 1548.01H991.377C985.815 1548.01 981.306 1543.5 981.306 1537.94V1388.32C981.306 1382.76 985.815 1378.25 991.377 1378.25H1040.46C1046.02 1378.25 1050.53 1382.76 1050.53 1388.32V1537.94C1050.53 1543.5 1046.02 1548.01 1040.46 1548.01Z" fill="url(#paint13_linear_0_1)"/>
<path d="M2103.28 1548.01H2054.2C2048.63 1548.01 2044.12 1543.5 2044.12 1537.94V1388.32C2044.12 1382.76 2048.63 1378.25 2054.2 1378.25H2103.28C2108.84 1378.25 2113.35 1382.76 2113.35 1388.32V1537.94C2113.35 1543.5 2108.84 1548.01 2103.28 1548.01Z" fill="url(#paint14_linear_0_1)"/>
<path d="M1914.87 2089V2335.62C1914.87 2373.12 1900.61 2407.28 1877.21 2432.99C1850.74 2462.1 1812.56 2480.38 1770.11 2480.38H1348.21C1268.27 2480.38 1203.45 2415.57 1203.45 2335.62V2089C1203.45 2045.52 1222.63 2006.51 1252.98 1979.98C1278.41 1957.75 1311.75 1944.24 1348.21 1944.24H1770.11C1850.06 1944.24 1914.87 2009.06 1914.87 2089Z" fill="white"/>
<path d="M1753.34 2272.46C1820.73 2272.46 1875.35 2217.83 1875.35 2150.45C1875.35 2083.07 1820.73 2028.44 1753.34 2028.44C1685.96 2028.44 1631.34 2083.07 1631.34 2150.45C1631.34 2217.83 1685.96 2272.46 1753.34 2272.46Z" fill="url(#paint15_linear_0_1)"/>
<path d="M1777.4 2196.85C1777.4 2211.08 1765.86 2222.62 1751.62 2222.62C1737.39 2222.62 1725.85 2211.08 1725.85 2196.85V2107.49C1725.85 2093.25 1737.39 2081.71 1751.62 2081.71C1765.86 2081.71 1777.4 2093.25 1777.4 2107.49V2196.85Z" fill="white"/>
<path d="M1822.08 2152.17C1822.08 2166.4 1810.54 2177.94 1796.3 2177.94H1706.95C1692.71 2177.94 1681.17 2166.4 1681.17 2152.17C1681.17 2137.93 1692.71 2126.39 1706.95 2126.39H1796.3C1810.54 2126.39 1822.08 2137.93 1822.08 2152.17Z" fill="white"/>
<path opacity="0.3" d="M1877.21 2432.99C1850.74 2462.1 1812.56 2480.38 1770.11 2480.38H1348.21C1268.27 2480.38 1203.45 2415.57 1203.45 2335.63V2089C1203.45 2045.52 1222.63 2006.52 1252.98 1979.98C1240.16 2071.64 1249.5 2205.95 1400.48 2245.55C1571.95 2290.5 1852.29 2324.56 1877.21 2432.99Z" fill="#D8DEE8"/>
<path d="M2956.5 1034.89C2956.58 1033.85 2956.64 1032.81 2956.71 1031.77C2956.86 1029.34 2956.99 1026.92 2957.08 1024.5C2957.13 1023.37 2957.17 1022.23 2957.19 1021.1C2957.26 1018.54 2957.27 1015.98 2957.26 1013.42C2957.26 1012.57 2957.27 1011.72 2957.26 1010.86C2957.21 1007.49 2957.1 1004.12 2956.93 1000.76C2956.89 1000.05 2956.83 999.337 2956.78 998.623C2956.62 995.952 2956.43 993.286 2956.19 990.626C2956.09 989.533 2955.97 988.442 2955.86 987.35C2955.62 984.975 2955.34 982.606 2955.03 980.24C2954.89 979.194 2954.76 978.147 2954.61 977.102C2954.19 974.127 2953.72 971.16 2953.2 968.201C2953.14 967.851 2953.09 967.499 2953.03 967.148C2952.43 963.825 2951.76 960.514 2951.04 957.211C2950.84 956.309 2950.62 955.41 2950.42 954.509C2949.86 952.08 2949.28 949.656 2948.66 947.239C2948.39 946.188 2948.11 945.138 2947.83 944.088C2947.17 941.639 2946.47 939.198 2945.74 936.764C2945.49 935.926 2945.26 935.087 2945 934.251C2943.99 930.987 2942.94 927.735 2941.81 924.499C2941.69 924.153 2941.56 923.812 2941.44 923.466C2940.43 920.591 2939.37 917.728 2938.26 914.876C2937.9 913.953 2937.54 913.034 2937.17 912.113C2936.23 909.76 2935.27 907.416 2934.27 905.081C2933.87 904.156 2933.48 903.231 2933.07 902.31C2931.88 899.592 2930.65 896.885 2929.37 894.19C2929.17 893.762 2928.98 893.331 2928.77 892.904C2927.25 889.733 2925.67 886.581 2924.03 883.445C2923.71 882.819 2923.37 882.2 2923.03 881.575C2921.72 879.092 2920.37 876.618 2918.99 874.158C2918.5 873.289 2918 872.422 2917.5 871.556C2916.15 869.198 2914.76 866.853 2913.34 864.518C2912.9 863.797 2912.47 863.073 2912.03 862.354C2908.27 856.271 2904.29 850.269 2900.11 844.353C2899.61 843.657 2899.11 842.966 2898.61 842.272C2896.96 839.977 2895.28 837.694 2893.57 835.426C2893.01 834.68 2892.45 833.934 2891.88 833.192C2889.96 830.689 2888.01 828.203 2886.01 825.734C2885.71 825.36 2885.42 824.983 2885.11 824.611C2882.73 821.682 2880.29 818.779 2877.8 815.901C2877.55 815.609 2877.29 815.323 2877.04 815.031C2874.86 812.531 2872.65 810.052 2870.4 807.593C2869.79 806.936 2869.18 806.283 2868.58 805.629C2866.53 803.425 2864.46 801.239 2862.35 799.069C2861.79 798.494 2861.24 797.917 2860.68 797.345C2855.32 791.89 2849.77 786.544 2844.03 781.314C2843.55 780.873 2843.05 780.438 2842.56 779.999C2840.18 777.842 2837.76 775.706 2835.3 773.589C2834.64 773.014 2833.97 772.441 2833.3 771.869C2830.75 769.697 2828.18 767.548 2825.56 765.421C2825.15 765.084 2824.74 764.741 2824.32 764.405C2818.15 759.415 2811.79 754.557 2805.26 749.826C2804.61 749.351 2803.94 748.882 2803.29 748.41C2800.62 746.5 2797.93 744.612 2795.21 742.747C2794.53 742.285 2793.86 741.82 2793.19 741.362C2725.65 695.562 2641.24 663.558 2547.54 652.716C2300.44 624.124 2082.48 753.458 2060.71 941.592C2053.22 1006.29 2069.92 1069.52 2105.09 1125.8L2048.67 1235.55C2043.34 1245.92 2051.37 1258.12 2063 1257.32C2077.7 1256.31 2097.29 1254.98 2118.58 1253.56C2119.06 1253.53 2119.53 1253.5 2120.01 1253.47C2122.56 1253.3 2125.15 1253.13 2127.74 1252.96C2129.05 1252.87 2130.35 1252.79 2131.67 1252.7C2133.78 1252.56 2135.91 1252.42 2138.05 1252.29C2139.26 1252.21 2140.47 1252.13 2141.69 1252.05C2144.9 1251.84 2148.13 1251.63 2151.35 1251.42C2152.62 1251.34 2153.89 1251.26 2155.16 1251.18C2157.19 1251.05 2159.23 1250.92 2161.26 1250.79C2162.77 1250.7 2164.27 1250.6 2165.77 1250.51C2167.75 1250.38 2169.71 1250.26 2171.68 1250.14C2173.08 1250.05 2174.49 1249.96 2175.89 1249.87C2178.19 1249.73 2180.47 1249.59 2182.74 1249.45C2183.72 1249.39 2184.72 1249.33 2185.7 1249.27C2188.76 1249.08 2191.78 1248.9 2194.76 1248.72C2196.09 1248.64 2197.38 1248.56 2198.69 1248.49C2200.63 1248.37 2202.56 1248.26 2204.46 1248.15C2205.64 1248.08 2206.8 1248.01 2207.96 1247.94C2209.98 1247.83 2211.97 1247.71 2213.93 1247.6C2214.95 1247.54 2215.97 1247.48 2216.97 1247.43C2219.85 1247.27 2222.68 1247.11 2225.4 1246.96C2292.54 1291.92 2376.1 1323.3 2468.71 1334.01C2715.81 1362.6 2933.77 1233.27 2955.54 1045.14C2955.93 1041.72 2956.24 1038.3 2956.5 1034.89Z" fill="url(#paint16_linear_0_1)"/>
<path d="M2130.46 1128.73C2095.28 1072.46 2078.59 1009.23 2086.08 944.53C2107.85 756.396 2325.81 627.062 2572.91 655.654C2820.01 684.246 3002.68 859.937 2980.91 1048.07C2959.14 1236.21 2741.18 1365.54 2494.08 1336.95C2401.47 1326.23 2317.91 1294.85 2250.77 1249.9C2202.66 1252.49 2127.85 1257.54 2088.37 1260.26C2076.74 1261.06 2068.71 1248.85 2074.03 1238.49L2130.46 1128.73Z" fill="url(#paint17_linear_0_1)"/>
<g opacity="0.3">
<path d="M2280.32 1040.06C2385.52 1009.5 2485.54 1111.27 2561.7 1057.16C2638.47 1002.61 2577.68 870.167 2654.48 789.681C2691.09 751.305 2746.74 737.582 2808.57 737.69C2925.18 812.61 2994.83 927.794 2980.91 1048.07C2959.14 1236.2 2741.18 1365.54 2494.08 1336.95C2401.47 1326.23 2317.91 1294.85 2250.77 1249.9C2212.81 1251.94 2158.24 1255.52 2117.5 1258.27C2164.57 1109.15 2225.57 1055.96 2280.32 1040.06Z" fill="url(#paint18_linear_0_1)"/>
</g>
<path d="M2528.28 824.914L2409.78 867.582C2446.1 908.766 2469.27 958.45 2480.83 1011.91L2582.44 975.328C2623.8 960.434 2645.46 914.405 2630.57 873.041C2615.67 831.677 2569.65 810.02 2528.28 824.914Z" fill="white"/>
<path opacity="0.49" d="M2538.74 924.344C2526.05 943.038 2502.48 946.228 2485.6 943.479C2447.03 934.416 2397.38 924.041 2371.19 949.363C2339.98 979.949 2304.87 999.669 2260.96 999.817C2261.48 1001.71 2262.06 1003.61 2262.74 1005.49C2277.63 1046.85 2323.66 1068.51 2365.02 1053.61L2582.44 975.328C2623.8 960.434 2645.46 914.405 2630.57 873.041C2627.81 865.37 2623.97 858.381 2619.29 852.173C2587.85 868.979 2560.41 892.756 2538.74 924.344Z" fill="#D8DEE8"/>
<path d="M2409.78 867.582L2310.87 903.2C2269.5 918.094 2247.84 964.123 2262.74 1005.49C2277.63 1046.85 2323.66 1068.51 2365.02 1053.61L2480.83 1011.91C2469.27 958.451 2446.1 908.766 2409.78 867.582Z" fill="url(#paint19_linear_0_1)"/>
<path opacity="0.3" d="M2455.49 937.079C2423.92 931.47 2390.91 930.3 2371.19 949.363C2339.98 979.949 2304.87 999.669 2260.96 999.817C2261.2 1000.69 2261.46 1001.57 2261.73 1002.44C2262.05 1003.46 2262.37 1004.47 2262.74 1005.49C2277.63 1046.85 2323.66 1068.51 2365.02 1053.61L2480.83 1011.91C2475.2 985.888 2466.8 960.769 2455.49 937.079Z" fill="url(#paint20_linear_0_1)"/>
<path d="M2729.53 996.083L2605.12 976.435C2617.13 1030.02 2613.52 1084.72 2597.92 1137.15L2704.59 1153.99C2748.02 1160.85 2789.16 1130.93 2796.01 1087.51C2802.87 1044.08 2772.96 1002.94 2729.53 996.083Z" fill="white"/>
<path opacity="0.49" d="M2690.83 1088.27C2670.71 1098.55 2648.52 1090 2635.04 1079.46C2605.6 1052.95 2567.08 1019.95 2531.93 1029.54C2489.85 1041.32 2449.58 1041.7 2411.02 1020.69C2410.57 1022.61 2410.16 1024.55 2409.85 1026.52C2402.99 1069.95 2432.91 1111.09 2476.34 1117.95L2704.59 1153.99C2748.02 1160.85 2789.16 1130.93 2796.02 1087.51C2797.29 1079.46 2797.29 1071.48 2796.18 1063.79C2760.53 1063.39 2725.03 1071.01 2690.83 1088.27Z" fill="#D8DEE8"/>
<path d="M2605.12 976.436L2501.28 960.035C2457.85 953.177 2416.71 983.095 2409.85 1026.52C2402.99 1069.95 2432.91 1111.09 2476.34 1117.95L2597.92 1137.15C2613.52 1084.72 2617.13 1030.02 2605.12 976.436Z" fill="url(#paint21_linear_0_1)"/>
<path opacity="0.3" d="M2611.73 1059.35C2586.76 1039.24 2558.39 1022.32 2531.93 1029.54C2489.85 1041.32 2449.58 1041.7 2411.02 1020.69C2410.81 1021.58 2410.62 1022.47 2410.43 1023.36C2410.23 1024.41 2410.02 1025.46 2409.85 1026.52C2402.99 1069.95 2432.91 1111.09 2476.34 1117.94L2597.92 1137.15C2605.51 1111.63 2610.24 1085.56 2611.73 1059.35Z" fill="url(#paint22_linear_0_1)"/>
<path d="M1821.22 979.497C1821.22 979.492 1821.22 979.486 1821.22 979.481L1863.28 979.656C1877.01 979.713 1887.06 969.481 1887.06 956.815V651.146C1887.06 638.48 1876.51 627.599 1862.78 626.763L1511.81 605.405C1496.42 604.468 1483.82 614.633 1483.82 628.124V953.699C1483.82 966.379 1494.76 976.828 1508.85 978.09C1509.8 978.179 1511.69 978.228 1512.66 978.231L1821.22 979.497Z" fill="url(#paint23_linear_0_1)"/>
<path d="M1906.26 651.146V956.815C1906.26 969.481 1895.85 979.712 1882.12 979.656L1531.16 978.221C1515.77 978.158 1503.02 967.188 1503.02 953.697V628.124C1503.02 614.633 1516.12 604.468 1531.5 605.405L1882.27 626.763C1896 627.599 1906.26 638.48 1906.26 651.146Z" fill="url(#paint24_linear_0_1)"/>
<path opacity="0.7" d="M1653.89 869.354L1588.06 867.939V769.486L1653.89 771.922V869.354Z" fill="white"/>
<path opacity="0.7" d="M1744.42 871.237L1678.58 869.902V725.304L1744.42 728.111V871.237Z" fill="white"/>
<path opacity="0.7" d="M1832.2 873.144L1769.1 871.792V688.193L1832.2 691.4V873.144Z" fill="white"/>
<path opacity="0.7" d="M1843.17 913.889L1574.34 909.978V887.831L1843.17 892.656V913.889Z" fill="white"/>
<path opacity="0.3" d="M1839.71 979.497L1531.5 978.231C1516.11 978.168 1503.02 967.189 1503.02 953.698V628.124C1503.02 614.633 1516.11 604.468 1531.5 605.405L1582.77 608.51C1613.05 644.153 1630.38 692.152 1621.02 746.085C1619.46 755.119 1620.75 763.301 1624.2 770.842C1629.62 782.756 1640.58 793.075 1654.75 802.727C1662.12 807.765 1670.4 812.62 1679.2 817.42C1699.45 828.438 1722.64 839.191 1744.92 851.28C1753.02 855.666 1760.99 860.254 1768.68 865.079C1772.25 867.325 1775.78 869.626 1779.21 872.001C1788.16 878.168 1796.54 884.773 1804.06 891.948C1811.03 898.612 1817.27 905.792 1822.49 913.583C1834.63 931.638 1841.43 953.092 1839.71 979.497Z" fill="url(#paint25_linear_0_1)"/>
<path d="M3018.29 1436.05L2700.98 1431.51C2687.13 1431.31 2675.44 1441.78 2675.44 1454.91V1771.88C2675.44 1785.01 2687 1795.02 2700.85 1794.44L2960.9 1783.24H2960.97L3018.27 1780.98C3030.72 1780.45 3041.07 1770.15 3041.07 1757.76V1458.8C3041.07 1446.41 3030.75 1436.23 3018.29 1436.05Z" fill="url(#paint26_linear_0_1)"/>
<path d="M3061.51 1458.8V1757.76C3061.51 1770.15 3051.7 1780.61 3039.24 1781.14L2722.81 1794.59C2708.96 1795.18 2698.15 1785.01 2698.15 1771.88V1454.91C2698.15 1441.78 2709.08 1431.31 2722.93 1431.51L3039.42 1436.05C3051.87 1436.23 3061.51 1446.41 3061.51 1458.8Z" fill="url(#paint27_linear_0_1)"/>
<path opacity="0.7" d="M2998.72 1582.02C2998.72 1564.16 2991.67 1547.39 2978.86 1534.77C2966 1522.11 2948.79 1515.09 2930.42 1515.06C2913.42 1515.04 2897.27 1520.99 2884.51 1531.93C2871.85 1521.6 2855.91 1515.95 2839.09 1515.93C2820.77 1515.91 2803.43 1522.52 2790.02 1534.62C2789.47 1535.11 2788.94 1535.6 2788.41 1536.11C2760.89 1562.49 2759.88 1604.63 2786.1 1631.65L2852.42 1694.69C2860.94 1702.7 2872.27 1706.92 2884.27 1706.57C2896.21 1706.22 2907.41 1701.36 2915.81 1692.95L2978.74 1629.78C2978.78 1629.72 2978.82 1629.68 2978.86 1629.64C2979.09 1629.43 2979.3 1629.2 2979.51 1628.99L2981.64 1626.83L2981.56 1626.78C2992.67 1614.32 2998.72 1598.58 2998.72 1582.02ZM2955.05 1619.3L2922.23 1619.81C2921.27 1619.82 2920.35 1617.85 2919.59 1617.33L2905.6 1606.96L2896.01 1621.87L2870.56 1661.42C2869.71 1662.77 2868.21 1663.19 2866.64 1663.23C2866.22 1663.24 2864.47 1663.18 2864.05 1663.07C2862.06 1662.56 2859.39 1660.82 2859.39 1658.82V1580.38L2849.04 1598.53L2840.64 1612.81C2839.79 1614.16 2838.9 1615.3 2837.29 1615.32L2778.72 1616.18C2776.1 1616.22 2774.01 1613.89 2774.01 1611.36C2774.01 1608.84 2776.19 1606.44 2778.81 1606.4L2834.89 1605.67L2842.15 1594.34L2862.69 1562.24C2863.79 1560.54 2865.67 1559.75 2867.64 1560.27C2869.65 1560.82 2870.75 1562.58 2870.75 1564.58V1643L2887.3 1617.48L2900.26 1597.42C2900.93 1596.36 2902.08 1595.62 2903.33 1595.37C2904.56 1595.11 2905.89 1596.76 2906.91 1597.46L2923.66 1610.23L2955.04 1609.79C2957.54 1609.75 2959.55 1612.02 2959.55 1614.48C2959.55 1616.93 2957.54 1619.26 2955.05 1619.3Z" fill="white"/>
<path opacity="0.3" d="M2982.48 1783.56L2722.93 1794.59C2709.08 1795.18 2698.15 1785.01 2698.15 1771.88V1454.91C2698.15 1441.78 2709.08 1431.31 2722.93 1431.51L2779.33 1432.33C2791.41 1459.83 2796.36 1492.12 2790.71 1527.51C2790.32 1529.95 2790.08 1532.34 2790.06 1534.62C2789.85 1560.51 2812.3 1577.95 2842.18 1594.34C2844.73 1595.74 2847.32 1597.12 2849.96 1598.52C2853.64 1600.43 2857.42 1602.36 2861.23 1604.3C2864.52 1605.95 2867.84 1607.6 2871.18 1609.27C2876.58 1611.95 2882.04 1614.68 2887.52 1617.47C2890.37 1618.9 2893.19 1620.38 2896.01 1621.87C2915.71 1632.2 2935.03 1643.61 2950.91 1657.72C2981.73 1685.12 2999.73 1722.87 2982.48 1783.56Z" fill="url(#paint28_linear_0_1)"/>
<path d="M2577.99 2140.65L2554.85 2054.38C2553.93 2050.93 2551.32 2048.19 2547.92 2047.12L2507.49 2034.28C2507.44 2034.26 2507.43 2034.26 2507.33 2034.23L2507.02 2034.13C2506.9 2034.09 2506.78 2034.09 2506.67 2034.07C2506.58 2034.05 2506.49 2034.04 2506.4 2034.02C2506.31 2034.01 2506.23 2033.99 2506.14 2033.99C2504.06 2033.66 2500.16 2033.68 2497.05 2037.48C2499.37 2039.15 2501.45 2039.07 2503.16 2038.33L2532.07 2131.4L2574.03 2144.46C2575.12 2144.8 2576.31 2144.52 2577.14 2143.73C2577.96 2142.93 2578.29 2141.75 2577.99 2140.65Z" fill="url(#paint29_linear_0_1)"/>
<path d="M2571.09 2140.63L2548.31 2057.09C2547.38 2053.69 2544.8 2050.98 2541.45 2049.89L2500.01 2036.43C2499.09 2036.13 2498.08 2036.37 2497.4 2037.05C2496.71 2037.72 2496.46 2038.73 2496.74 2039.65L2524.1 2127.86C2524.79 2130.08 2526.52 2131.81 2528.73 2132.5L2567.12 2144.45C2568.22 2144.79 2569.41 2144.51 2570.24 2143.71C2571.06 2142.91 2571.39 2141.73 2571.09 2140.63Z" fill="url(#paint30_linear_0_1)"/>
<path d="M2457.85 2108.86C2440.7 2123.96 2472.07 2237.11 2561.11 2270.84C2631.31 2297.43 2715.09 2267.94 2755.28 2209.57C2778.45 2175.91 2799.44 2115.82 2773.71 2086.59C2772.54 2085.26 2758 2069.25 2737.26 2070.39C2689.26 2073.03 2686.16 2163.28 2634.68 2174.33C2622.58 2176.92 2618.23 2172.91 2517.16 2128.84C2468.4 2107.57 2461.95 2105.26 2457.85 2108.86Z" fill="url(#paint31_linear_0_1)"/>
<path d="M2588.92 2153.88C2588.92 2153.88 2593.22 2137.13 2582.91 2129.4C2572.6 2121.66 2568.3 2101.47 2566.58 2108.78C2564.86 2116.08 2566.58 2124.67 2566.58 2124.67C2566.58 2124.67 2529.64 2092.45 2530.07 2103.62C2530.49 2114.79 2557.13 2152.17 2574.32 2159.47C2591.5 2166.77 2588.65 2167.89 2588.92 2153.88Z" fill="url(#paint32_linear_0_1)"/>
<path d="M2462.47 2110.07C2462.47 2110.07 2461.9 2086.29 2449.59 2080.85C2437.27 2075.41 2423.24 2047.92 2424.1 2061.95C2424.96 2075.98 2437.56 2082.57 2437.56 2082.57C2437.56 2082.57 2417.22 2089.89 2426.1 2101.27C2434.98 2112.64 2445 2114.93 2455.31 2120.09C2455.31 2120.09 2458.11 2128.75 2465.2 2127.46C2472.28 2126.18 2466.2 2113.93 2462.47 2110.07Z" fill="url(#paint33_linear_0_1)"/>
<path d="M2894.48 2405.22C2963.04 2438.06 3028.13 2428.27 3073.67 2421.42C3125.13 2413.68 3174.69 2406.22 3194.14 2367.77C3213.39 2329.71 3196.19 2275.01 3165.79 2245.27C3130.08 2210.32 3094.46 2227.72 3069.62 2193.64C3044.17 2158.72 3074.22 2130.38 3051.4 2091.39C3022.67 2042.32 2960.97 2063.13 2930.93 2013.44C2906.27 1972.67 2936.48 1939.36 2911.69 1913.21C2877.31 1876.95 2777.01 1896.35 2760.95 1939.06C2754.67 1955.75 2764.19 1968.22 2771.22 1991.68C2793.58 2066.31 2747.84 2108.67 2743.64 2176.43C2737.97 2267.97 2809.97 2364.74 2894.48 2405.22Z" fill="url(#paint34_linear_0_1)"/>
<path d="M2940.96 3184.1C2940.96 3184.1 2872.34 3192.79 2869.72 3208.39C2866.68 3226.49 2946.02 3210.59 2946.02 3210.59C2946.02 3210.59 2958.17 3206.6 2940.96 3184.1Z" fill="url(#paint35_linear_0_1)"/>
<path d="M2936.59 3147L2938.26 3185.31C2938.26 3185.31 2929.88 3195.94 2920.27 3188.25L2912.61 3147H2936.59Z" fill="url(#paint36_linear_0_1)"/>
<path d="M2829.17 3202.65C2829.17 3202.65 2760.56 3211.34 2757.94 3226.94C2754.89 3245.04 2834.24 3229.14 2834.24 3229.14C2834.24 3229.14 2846.38 3225.15 2829.17 3202.65Z" fill="url(#paint37_linear_0_1)"/>
<path d="M2824.8 3165.55L2826.48 3203.86C2826.48 3203.86 2818.09 3214.49 2808.48 3206.8L2800.82 3165.55H2824.8Z" fill="url(#paint38_linear_0_1)"/>
<path d="M2732.26 2534.17C2735.87 2589.57 2744.75 2669.33 2768.71 2763.31C2777.32 2797.11 2785.99 2825.29 2805.49 2883.85C2828.79 2953.77 2861.63 3049.28 2904.44 3164.65C2916.85 3166.55 2929.26 3168.45 2941.68 3170.34C2967.38 3076.68 2959.99 3003.03 2933.61 2944.48C2917.98 2909.79 2908.78 2909.48 2892.7 2870.76C2875.6 2829.61 2868.62 2788.15 2872.94 2648.2C2874.16 2608.56 2876.45 2555.89 2881.07 2493.56C2831.47 2507.1 2781.86 2520.63 2732.26 2534.17Z" fill="url(#paint39_linear_0_1)"/>
<path opacity="0.3" d="M2732.26 2534.17C2735.87 2589.57 2744.75 2669.33 2768.71 2763.31C2777.32 2797.11 2785.99 2825.29 2805.49 2883.85C2828.79 2953.77 2861.63 3049.28 2904.44 3164.65C2916.85 3166.55 2929.26 3168.45 2941.68 3170.34C2963.63 3082.92 2947.55 3037.01 2927.59 3011.08C2915.25 2995.07 2899.75 2984.5 2888.44 2956.94C2875.13 2924.51 2884.56 2909.83 2877.64 2871.85C2868.33 2820.67 2846.2 2819.91 2838.39 2779.88C2829.17 2732.67 2855.3 2709.95 2872.94 2648.2C2882.75 2613.84 2891.38 2562.34 2881.07 2493.56C2831.47 2507.1 2781.86 2520.63 2732.26 2534.17Z" fill="url(#paint40_linear_0_1)"/>
<path d="M2818.25 2525.39C2787.03 2564.71 2699.31 2685.73 2696.77 2861.86C2694.4 3026.14 2767.5 3143.16 2796.81 3185.24C2809.02 3184.12 2821.23 3183.01 2833.44 3181.9C2836.52 3147.12 2838.09 3094.88 2827.36 3033C2811.39 2940.82 2786.1 2930.87 2789.91 2878.3C2794.68 2812.37 2836.36 2801.79 2901.27 2682.02C2936.24 2617.49 2978.02 2540.4 2950.87 2511.85C2945.73 2506.44 2920.53 2484.3 2818.25 2525.39Z" fill="url(#paint41_linear_0_1)"/>
<path d="M2786.5 2042.92C2742.53 2050.92 2716.18 2081.07 2708.92 2089.63C2699.89 2100.26 2673.19 2134.96 2672.68 2223.73C2672.19 2308.83 2696.49 2318.67 2703.85 2399.41C2714.72 2518.49 2668.92 2574.38 2700.85 2601.22C2728.03 2624.07 2761.09 2583.48 2852.68 2587.87C2928.28 2591.5 2942.83 2620.93 3007.82 2613.57C3017.75 2612.45 3104.51 2601.72 3117.91 2556.33C3127.22 2524.79 3092.97 2504.1 3046.03 2427.76C3001.09 2354.67 2978.99 2286.65 2968.01 2252.85C2934.89 2150.91 2948.64 2123.04 2911.2 2085.76C2906.54 2081.12 2854.17 2030.6 2786.5 2042.92Z" fill="url(#paint42_linear_0_1)"/>
<path d="M2830.92 1962.04C2830.92 1962.04 2821.97 2024.25 2856.11 2057.65C2858.53 2060.02 2857.4 2064.11 2854.08 2064.8C2838.23 2068.14 2801.34 2073.51 2765.57 2061.49C2762.46 2060.45 2761.76 2056.33 2764.32 2054.27C2771.8 2048.27 2784.39 2036.8 2791.1 2023.02C2801.04 2002.59 2802.81 1967.75 2802.81 1967.75L2830.92 1962.04Z" fill="url(#paint43_linear_0_1)"/>
<g opacity="0.3">
<path d="M3046.03 2427.76C3001.1 2354.67 2978.99 2286.65 2968.01 2252.85C2934.89 2150.91 2948.64 2123.04 2911.2 2085.76C2908.81 2083.38 2893.8 2068.89 2870.61 2057.03C2876.75 2077.04 2880.43 2100.58 2876.97 2126.07C2865.16 2212.97 2781.27 2243.18 2791.93 2297.16C2801.68 2346.5 2876.36 2344.45 2887.09 2397.39C2898.14 2451.87 2825.84 2487.64 2840.52 2525.96C2854.7 2562.94 2927.38 2543.5 2999.46 2587.71C3010.44 2594.44 3020.35 2602.01 3029.32 2610.14C3058.82 2604.25 3108.09 2589.62 3117.91 2556.33C3127.22 2524.79 3092.97 2504.1 3046.03 2427.76Z" fill="url(#paint44_linear_0_1)"/>
</g>
<path d="M2831.98 1984.26C2831.98 1984.26 2816.56 2005.43 2792.38 1996.61C2770.72 1988.71 2783.65 1932.79 2800.82 1926.41C2806.55 1924.28 2817.07 1925.23 2824.1 1929.61C2829.05 1932.7 2842.25 1949.1 2834.68 1967.49C2840.15 1965.9 2844.96 1967.34 2846.17 1970.05C2847.7 1973.49 2843.07 1978.16 2842.02 1979.23C2838.38 1982.9 2834 1983.93 2831.98 1984.26Z" fill="url(#paint45_linear_0_1)"/>
<path d="M2563.5 2155.02C2571.65 2151.95 2579.79 2148.88 2587.94 2145.81C2592.73 2154.54 2624.73 2210.68 2684.62 2219.21C2741.09 2227.25 2794.12 2188.94 2818.76 2151.38C2842.12 2115.76 2837.37 2084.74 2859.25 2077.99C2881.26 2071.19 2908.54 2095.64 2921.51 2112.41C2952.18 2152.06 2951.1 2211.21 2932.14 2253.63C2901.32 2322.59 2818.5 2357.9 2747.9 2350.71C2638.53 2339.58 2587.86 2229.46 2579.32 2209.58C2570.07 2188.05 2565.73 2168.76 2563.5 2155.02Z" fill="url(#paint46_linear_0_1)"/>
<defs>
<linearGradient id="paint0_linear_0_1" x1="906.457" y1="1935.48" x2="1004.09" y2="4428.89" gradientUnits="userSpaceOnUse">
<stop stop-color="#FFC444"/>
<stop offset="0.9964" stop-color="#F36F56"/>
</linearGradient>
<linearGradient id="paint1_linear_0_1" x1="887.234" y1="2616.99" x2="1243.14" y2="3130.66" gradientUnits="userSpaceOnUse">
<stop offset="0.0036" stop-color="#E38DDD"/>
<stop offset="1" stop-color="#9571F6"/>
</linearGradient>
<linearGradient id="paint2_linear_0_1" x1="1724.12" y1="2808.82" x2="1721.96" y2="2949.27" gradientUnits="userSpaceOnUse">
<stop stop-color="#444B8C"/>
<stop offset="0.9964" stop-color="#26264F"/>
</linearGradient>
<linearGradient id="paint3_linear_0_1" x1="1748.5" y1="3087.54" x2="1524.2" y2="2408.41" gradientUnits="userSpaceOnUse">
<stop stop-color="#444B8C"/>
<stop offset="0.9964" stop-color="#26264F"/>
</linearGradient>
<linearGradient id="paint4_linear_0_1" x1="2742.81" y1="3022.56" x2="658.073" y2="3022.56" gradientUnits="userSpaceOnUse">
<stop stop-color="#FF9085"/>
<stop offset="1" stop-color="#FB6FBB"/>
</linearGradient>
<linearGradient id="paint5_linear_0_1" x1="2411.71" y1="3083.05" x2="2378.03" y2="3087.14" gradientUnits="userSpaceOnUse">
<stop stop-color="#FF9085"/>
<stop offset="1" stop-color="#FB6FBB"/>
</linearGradient>
<linearGradient id="paint6_linear_0_1" x1="1770.94" y1="3153.81" x2="1768.63" y2="3213.35" gradientUnits="userSpaceOnUse">
<stop stop-color="#444B8C"/>
<stop offset="0.9964" stop-color="#26264F"/>
</linearGradient>
<linearGradient id="paint7_linear_0_1" x1="1618.92" y1="3147.92" x2="1616.61" y2="3207.45" gradientUnits="userSpaceOnUse">
<stop stop-color="#444B8C"/>
<stop offset="0.9964" stop-color="#26264F"/>
</linearGradient>
<linearGradient id="paint8_linear_0_1" x1="1428.6" y1="3140.54" x2="1426.29" y2="3200.08" gradientUnits="userSpaceOnUse">
<stop stop-color="#444B8C"/>
<stop offset="0.9964" stop-color="#26264F"/>
</linearGradient>
<linearGradient id="paint9_linear_0_1" x1="635.968" y1="2130.13" x2="2548.49" y2="2130.13" gradientUnits="userSpaceOnUse">
<stop offset="0.0036" stop-color="#E38DDD"/>
<stop offset="1" stop-color="#9571F6"/>
</linearGradient>
<linearGradient id="paint10_linear_0_1" x1="1947.68" y1="736.812" x2="1243.81" y2="2205.1" gradientUnits="userSpaceOnUse">
<stop stop-color="#AA80F9"/>
<stop offset="0.9964" stop-color="#6165D7"/>
</linearGradient>
<linearGradient id="paint11_linear_0_1" x1="2037.89" y1="635.337" x2="1259.42" y2="2259.24" gradientUnits="userSpaceOnUse">
<stop stop-color="#AA80F9" stop-opacity="0.97"/>
<stop offset="0.9964" stop-color="#6165D7"/>
</linearGradient>
<linearGradient id="paint12_linear_0_1" x1="1174.87" y1="1538.1" x2="1932.08" y2="1538.1" gradientUnits="userSpaceOnUse">
<stop stop-color="#444B8C"/>
<stop offset="0.9964" stop-color="#26264F"/>
</linearGradient>
<linearGradient id="paint13_linear_0_1" x1="981.306" y1="1463.13" x2="1050.53" y2="1463.13" gradientUnits="userSpaceOnUse">
<stop stop-color="#AA80F9"/>
<stop offset="0.9964" stop-color="#6165D7"/>
</linearGradient>
<linearGradient id="paint14_linear_0_1" x1="2044.12" y1="1463.13" x2="2113.35" y2="1463.13" gradientUnits="userSpaceOnUse">
<stop stop-color="#AA80F9"/>
<stop offset="0.9964" stop-color="#6165D7"/>
</linearGradient>
<linearGradient id="paint15_linear_0_1" x1="1631.34" y1="2150.45" x2="1875.35" y2="2150.45" gradientUnits="userSpaceOnUse">
<stop stop-color="#AA80F9"/>
<stop offset="0.9964" stop-color="#6165D7"/>
</linearGradient>
<linearGradient id="paint16_linear_0_1" x1="2532.67" y1="1343.17" x2="2453.93" y2="767.668" gradientUnits="userSpaceOnUse">
<stop stop-color="#444B8C"/>
<stop offset="0.9964" stop-color="#26264F"/>
</linearGradient>
<linearGradient id="paint17_linear_0_1" x1="2980.92" y1="1048.05" x2="2086.08" y2="944.55" gradientUnits="userSpaceOnUse">
<stop stop-color="#AA80F9"/>
<stop offset="0.9964" stop-color="#6165D7"/>
</linearGradient>
<linearGradient id="paint18_linear_0_1" x1="2890.02" y1="798.998" x2="1995.22" y2="1731.84" gradientUnits="userSpaceOnUse">
<stop stop-color="#AA80F9"/>
<stop offset="0.9964" stop-color="#6165D7"/>
</linearGradient>
<linearGradient id="paint19_linear_0_1" x1="2195.24" y1="885.881" x2="2628.91" y2="1082.39" gradientUnits="userSpaceOnUse">
<stop stop-color="#FF9085"/>
<stop offset="1" stop-color="#FB6FBB"/>
</linearGradient>
<linearGradient id="paint20_linear_0_1" x1="2272.82" y1="1033.48" x2="2466.77" y2="963.645" gradientUnits="userSpaceOnUse">
<stop stop-color="#FF9085"/>
<stop offset="1" stop-color="#FB6FBB"/>
</linearGradient>
<linearGradient id="paint21_linear_0_1" x1="2408.27" y1="889.19" x2="2693.78" y2="1270.2" gradientUnits="userSpaceOnUse">
<stop stop-color="#FF9085"/>
<stop offset="1" stop-color="#FB6FBB"/>
</linearGradient>
<linearGradient id="paint22_linear_0_1" x1="2405.21" y1="1055.91" x2="2608.83" y2="1088.07" gradientUnits="userSpaceOnUse">
<stop stop-color="#FF9085"/>
<stop offset="1" stop-color="#FB6FBB"/>
</linearGradient>
<linearGradient id="paint23_linear_0_1" x1="1903.39" y1="349.46" x2="1312.33" y2="1551.54" gradientUnits="userSpaceOnUse">
<stop stop-color="#311944"/>
<stop offset="1" stop-color="#893976"/>
</linearGradient>
<linearGradient id="paint24_linear_0_1" x1="1922.63" y1="349.375" x2="1331.59" y2="1551.42" gradientUnits="userSpaceOnUse">
<stop stop-color="#FF9085"/>
<stop offset="1" stop-color="#FB6FBB"/>
</linearGradient>
<linearGradient id="paint25_linear_0_1" x1="1818.33" y1="502.558" x2="1373.88" y2="1406.47" gradientUnits="userSpaceOnUse">
<stop stop-color="#FF9085"/>
<stop offset="1" stop-color="#FB6FBB"/>
</linearGradient>
<linearGradient id="paint26_linear_0_1" x1="3072.54" y1="1170.58" x2="2492.02" y2="2351.22" gradientUnits="userSpaceOnUse">
<stop stop-color="#311944"/>
<stop offset="1" stop-color="#893976"/>
</linearGradient>
<linearGradient id="paint27_linear_0_1" x1="2698.15" y1="1613.06" x2="3061.51" y2="1613.06" gradientUnits="userSpaceOnUse">
<stop stop-color="#FF9085"/>
<stop offset="1" stop-color="#FB6FBB"/>
</linearGradient>
<linearGradient id="paint28_linear_0_1" x1="2988.09" y1="1316.02" x2="2549.28" y2="2208.46" gradientUnits="userSpaceOnUse">
<stop stop-color="#FF9085"/>
<stop offset="1" stop-color="#FB6FBB"/>
</linearGradient>
<linearGradient id="paint29_linear_0_1" x1="2567.74" y1="2008.31" x2="2556.28" y2="2039.24" gradientUnits="userSpaceOnUse">
<stop stop-color="#444B8C"/>
<stop offset="0.9964" stop-color="#26264F"/>
</linearGradient>
<linearGradient id="paint30_linear_0_1" x1="2496.63" y1="2090.45" x2="2571.2" y2="2090.45" gradientUnits="userSpaceOnUse">
<stop stop-color="#444B8C"/>
<stop offset="0.9964" stop-color="#26264F"/>
</linearGradient>
<linearGradient id="paint31_linear_0_1" x1="2453.35" y1="2175.52" x2="2785.52" y2="2175.52" gradientUnits="userSpaceOnUse">
<stop stop-color="#FFC444"/>
<stop offset="0.9964" stop-color="#F36F56"/>
</linearGradient>
<linearGradient id="paint32_linear_0_1" x1="2530.06" y1="2133.01" x2="2589.81" y2="2133.01" gradientUnits="userSpaceOnUse">
<stop stop-color="#311944"/>
<stop offset="1" stop-color="#A03976"/>
</linearGradient>
<linearGradient id="paint33_linear_0_1" x1="2423.86" y1="2092.8" x2="2468.47" y2="2092.8" gradientUnits="userSpaceOnUse">
<stop stop-color="#311944"/>
<stop offset="1" stop-color="#A03976"/>
</linearGradient>
<linearGradient id="paint34_linear_0_1" x1="2835.48" y1="2109.1" x2="3097.68" y2="2318.65" gradientUnits="userSpaceOnUse">
<stop stop-color="#311944"/>
<stop offset="1" stop-color="#893976"/>
</linearGradient>
<linearGradient id="paint35_linear_0_1" x1="2835.74" y1="3115.41" x2="2954.52" y2="3255.79" gradientUnits="userSpaceOnUse">
<stop stop-color="#444B8C"/>
<stop offset="0.9964" stop-color="#3E4177"/>
</linearGradient>
<linearGradient id="paint36_linear_0_1" x1="2923.46" y1="3130.84" x2="2930.21" y2="3226.68" gradientUnits="userSpaceOnUse">
<stop stop-color="#311944"/>
<stop offset="1" stop-color="#893976"/>
</linearGradient>
<linearGradient id="paint37_linear_0_1" x1="2761.45" y1="3178.27" x2="2880.23" y2="3318.65" gradientUnits="userSpaceOnUse">
<stop stop-color="#444B8C"/>
<stop offset="0.9964" stop-color="#3E4177"/>
</linearGradient>
<linearGradient id="paint38_linear_0_1" x1="2810.93" y1="3138.76" x2="2817.68" y2="3234.6" gradientUnits="userSpaceOnUse">
<stop stop-color="#311944"/>
<stop offset="1" stop-color="#893976"/>
</linearGradient>
<linearGradient id="paint39_linear_0_1" x1="2732.26" y1="2831.95" x2="2957.6" y2="2831.95" gradientUnits="userSpaceOnUse">
<stop stop-color="#444B8C"/>
<stop offset="0.9964" stop-color="#3E4177"/>
</linearGradient>
<linearGradient id="paint40_linear_0_1" x1="2732.26" y1="2831.95" x2="2952.22" y2="2831.95" gradientUnits="userSpaceOnUse">
<stop stop-color="#444B8C"/>
<stop offset="0.9964" stop-color="#3E4177"/>
</linearGradient>
<linearGradient id="paint41_linear_0_1" x1="2696.71" y1="2843.14" x2="2959.59" y2="2843.14" gradientUnits="userSpaceOnUse">
<stop stop-color="#444B8C"/>
<stop offset="0.9964" stop-color="#3E4177"/>
</linearGradient>
<linearGradient id="paint42_linear_0_1" x1="2672.68" y1="2327.87" x2="3119.44" y2="2327.87" gradientUnits="userSpaceOnUse">
<stop stop-color="#FFC444"/>
<stop offset="0.9964" stop-color="#F36F56"/>
</linearGradient>
<linearGradient id="paint43_linear_0_1" x1="2735.33" y1="2066.64" x2="2849.73" y2="2004.89" gradientUnits="userSpaceOnUse">
<stop stop-color="#311944"/>
<stop offset="1" stop-color="#A03976"/>
</linearGradient>
<linearGradient id="paint44_linear_0_1" x1="2672.68" y1="2333.58" x2="3119.44" y2="2333.58" gradientUnits="userSpaceOnUse">
<stop stop-color="#FFC444"/>
<stop offset="0.9964" stop-color="#F36F56"/>
</linearGradient>
<linearGradient id="paint45_linear_0_1" x1="2896.89" y1="1905.39" x2="2810.84" y2="1960.05" gradientUnits="userSpaceOnUse">
<stop stop-color="#311944"/>
<stop offset="1" stop-color="#A03976"/>
</linearGradient>
<linearGradient id="paint46_linear_0_1" x1="2563.5" y1="2214.23" x2="2945.61" y2="2214.23" gradientUnits="userSpaceOnUse">
<stop stop-color="#FFC444"/>
<stop offset="0.9964" stop-color="#F36F56"/>
</linearGradient>
</defs>
</svg>
